# xmcd
#
# Track frame offsets:
#	150
#	20945
#	34153
#	48043
#	63826
#	74554
#	88437
#	99829
#	122119
#	141345
#	163838
#	184097
#	196132
#	210987
#	225483
#	239788
#
# Disc length: 3424 seconds
#
# Revision: 1
# Processed by: cddbd v1.5.1PL0 Copyright (c) Steve Scherf et al.
# Submitted via: audiograbber 1.83.01
#
DISCID=e70d5e10
DTITLE=The Lazy Jumpers - Somebody Tell That Woman
DYEAR=2003
DGENRE=Blues
TTITLE0=It Hurts So Bad (Hangover Blues)
TTITLE1=Calling To My Baby
TTITLE2=From Now On
TTITLE3=I Feel Like Movin'
TTITLE4=Tell That Woman
TTITLE5=I'm A Man So I'm A Fool
TTITLE6=Swingin' With Johnny
TTITLE7=I Wanna Make Love To You
TTITLE8=I'm A Kid Again
TTITLE9=Salt And Pepper Boogie
TTITLE10=Lazy Jump
TTITLE11=Well, Oh Well
TTITLE12=Lazy
TTITLE13=I'm Gonna Tell My Mamma
TTITLE14=Up The Line
TTITLE15=False Start Boogie
EXTD=
EXTT0=
EXTT1=
EXTT2=
EXTT3=
EXTT4=
EXTT5=
EXTT6=
EXTT7=
EXTT8=
EXTT9=
EXTT10=
EXTT11=
EXTT12=
EXTT13=
EXTT14=
EXTT15=
PLAYORDER=
